<svg id="visual" viewBox="0 0 900 600" width="900" height="600" xmlns="http://www.w3.org/2000/svg" xmlns:xlink="http://www.w3.org/1999/xlink" version="1.1"><path d="M0 145L13.7 138C27.3 131 54.7 117 82 106C109.3 95 136.7 87 163.8 91C191 95 218 111 245.2 116C272.3 121 299.7 115 327 112C354.3 109 381.7 109 409 128C436.3 147 463.7 185 491 190C518.3 195 545.7 167 573 174C600.3 181 627.7 223 654.8 232C682 241 709 217 736.2 200C763.3 183 790.7 173 818 163C845.3 153 872.7 143 886.3 138L900 133L900 0L886.3 0C872.7 0 845.3 0 818 0C790.7 0 763.3 0 736.2 0C709 0 682 0 654.8 0C627.7 0 600.3 0 573 0C545.7 0 518.3 0 491 0C463.7 0 436.3 0 409 0C381.7 0 354.3 0 327 0C299.7 0 272.3 0 245.2 0C218 0 191 0 163.8 0C136.7 0 109.3 0 82 0C54.7 0 27.3 0 13.7 0L0 0Z" fill="#3c536b"></path><path d="M0 313L13.7 318C27.3 323 54.7 333 82 331C109.3 329 136.7 315 163.8 320C191 325 218 349 245.2 354C272.3 359 299.7 345 327 335C354.3 325 381.7 319 409 329C436.3 339 463.7 365 491 358C518.3 351 545.7 311 573 312C600.3 313 627.7 355 654.8 360C682 365 709 333 736.2 328C763.3 323 790.7 345 818 356C845.3 367 872.7 367 886.3 367L900 367L900 131L886.3 136C872.7 141 845.3 151 818 161C790.7 171 763.3 181 736.2 198C709 215 682 239 654.8 230C627.7 221 600.3 179 573 172C545.7 165 518.3 193 491 188C463.7 183 436.3 145 409 126C381.7 107 354.3 107 327 110C299.7 113 272.3 119 245.2 114C218 109 191 93 163.8 89C136.7 85 109.3 93 82 104C54.7 115 27.3 129 13.7 136L0 143Z" fill="#46627e"></path><path d="M0 397L13.7 396C27.3 395 54.7 393 82 383C109.3 373 136.7 355 163.8 368C191 381 218 425 245.2 438C272.3 451 299.7 433 327 415C354.3 397 381.7 379 409 389C436.3 399 463.7 437 491 442C518.3 447 545.7 419 573 415C600.3 411 627.7 431 654.8 425C682 419 709 387 736.2 384C763.3 381 790.7 407 818 423C845.3 439 872.7 445 886.3 448L900 451L900 365L886.3 365C872.7 365 845.3 365 818 354C790.7 343 763.3 321 736.2 326C709 331 682 363 654.8 358C627.7 353 600.3 311 573 310C545.7 309 518.3 349 491 356C463.7 363 436.3 337 409 327C381.7 317 354.3 323 327 333C299.7 343 272.3 357 245.2 352C218 347 191 323 163.8 318C136.7 313 109.3 327 82 329C54.7 331 27.3 321 13.7 316L0 311Z" fill="#517292"></path><path d="M0 475L13.7 470C27.3 465 54.7 455 82 449C109.3 443 136.7 441 163.8 458C191 475 218 511 245.2 521C272.3 531 299.7 515 327 500C354.3 485 381.7 471 409 475C436.3 479 463.7 501 491 505C518.3 509 545.7 495 573 493C600.3 491 627.7 501 654.8 495C682 489 709 467 736.2 471C763.3 475 790.7 505 818 519C845.3 533 872.7 531 886.3 530L900 529L900 449L886.3 446C872.7 443 845.3 437 818 421C790.7 405 763.3 379 736.2 382C709 385 682 417 654.8 423C627.7 429 600.3 409 573 413C545.7 417 518.3 445 491 440C463.7 435 436.3 397 409 387C381.7 377 354.3 395 327 413C299.7 431 272.3 449 245.2 436C218 423 191 379 163.8 366C136.7 353 109.3 371 82 381C54.7 391 27.3 393 13.7 394L0 395Z" fill="#6884a0"></path><path d="M0 601L13.7 601C27.3 601 54.7 601 82 601C109.3 601 136.7 601 163.8 601C191 601 218 601 245.2 601C272.3 601 299.7 601 327 601C354.3 601 381.7 601 409 601C436.3 601 463.7 601 491 601C518.3 601 545.7 601 573 601C600.3 601 627.7 601 654.8 601C682 601 709 601 736.2 601C763.3 601 790.7 601 818 601C845.3 601 872.7 601 886.3 601L900 601L900 527L886.3 528C872.7 529 845.3 531 818 517C790.7 503 763.3 473 736.2 469C709 465 682 487 654.8 493C627.7 499 600.3 489 573 491C545.7 493 518.3 507 491 503C463.7 499 436.3 477 409 473C381.7 469 354.3 483 327 498C299.7 513 272.3 529 245.2 519C218 509 191 473 163.8 456C136.7 439 109.3 441 82 447C54.7 453 27.3 463 13.7 468L0 473Z" fill="#7f96af"></path></svg>